# xmcd
#
# Track frame offsets:
# 150
# 13244
# 28167
# 47298
# 64704
# 75495
# 94387
# 110665
# 126511
# 150945
#
# Disc length: 2372 seconds
#
#
# Revision: 0
# Processed by: cddbd v1.5.2PL0 Copyright (c) Steve Scherf et al.
# Submitted via: FreeRIP 2.941 
#
DISCID=7a09420a
DTITLE=Natural Child - Dancin' With Wolves
DYEAR=2013
DGENRE=garage country
TTITLE0=Out in the Country
TTITLE1=Don't the Time Pass Quickly
TTITLE2=Country Hippie Blues
TTITLE3=Firewater Liquor
TTITLE4=Bailando Con Lobos
TTITLE5=Saturday Night Blues
TTITLE6=Rounder
TTITLE7=I'm Gonna Try
TTITLE8=Nashville's a Groovy Little Town
TTITLE9=Dancin' With Wolves
EXTD=
EXTT0=
EXTT1=
EXTT2=
EXTT3=
EXTT4=
EXTT5=
EXTT6=
EXTT7=
EXTT8=
EXTT9=
PLAYORDER=
